<svg xmlns="http://www.w3.org/2000/svg" xmlns:xlink="http://www.w3.org/1999/xlink" width="193.464" height="76.945" viewBox="0 0 193.464 76.945">
  <defs>
    <linearGradient id="linear-gradient" x1="0.003" y1="0.5" x2="1.001" y2="0.5" gradientUnits="objectBoundingBox">
      <stop offset="0" stop-color="#e96f0b"/>
      <stop offset="1" stop-color="#f37901"/>
    </linearGradient>
  </defs>
  <g id="google-analytics-horizontalold" transform="translate(-14 8)">
    <g id="Group_1098" data-name="Group 1098" transform="translate(14 -8)">
      <g id="Group_1097" data-name="Group 1097" transform="translate(0 49.385)">
        <path id="Path_1283" data-name="Path 1283" d="M175.223,12.284l3.289,8.636h-6.374ZM173.989,9.4l-7.2,18.916h2.673l1.851-5.14h8.019l1.851,5.14h2.673l-7.2-18.916h-2.672Zm38.857,18.916h2.467V9.4h-2.467Zm-25.3-11.1a5.245,5.245,0,0,1,4.112-2.262c3.289,0,4.935,2.262,4.935,5.552v8.019h-2.468V20.917c0-2.673-1.438-3.7-3.289-3.7-2.056,0-3.5,2.056-3.5,3.906v7.2h-2.467V15.163h2.467l.205,2.056Zm11.1,7.2c0-2.879,2.673-4.523,5.757-4.523a5.6,5.6,0,0,1,3.5.823V20.3a3.072,3.072,0,0,0-3.289-3.085,3.011,3.011,0,0,0-3.085,1.851l-2.255-1.029c.412-1.234,2.056-3.085,5.354-3.085,3.085,0,5.757,1.851,5.757,5.552v7.813h-2.262v-1.86h-.205a4.952,4.952,0,0,1-4.318,2.262c-2.673,0-4.935-1.645-4.935-4.318m9.252-1.645a5.164,5.164,0,0,0-3.085-.823c-2.467,0-3.5,1.438-3.5,2.467,0,1.438,1.438,2.056,2.673,2.056a4.008,4.008,0,0,0,3.906-3.7" transform="translate(-75.3 -6.936)" fill="#757575"/>
        <path id="Path_1284" data-name="Path 1284" d="M231.306,35.368l2.879-6.793-5.14-11.925h2.467l3.906,9.046,3.906-9.046h2.467l-8.017,18.718h-2.467Zm36.185-14.391A3.9,3.9,0,0,0,264,18.3c-2.056,0-3.906,1.851-3.906,4.523S261.941,27.35,264,27.35a4.006,4.006,0,0,0,3.5-2.467l2.056,1.234a6.038,6.038,0,0,1-5.552,3.7c-3.5,0-6.374-3.085-6.374-6.99,0-4.112,2.879-6.991,6.374-6.991a6.039,6.039,0,0,1,5.552,3.7l-2.056,1.438Z" transform="translate(-87.804 -8.228)" fill="#757575" fill-rule="evenodd"/>
        <path id="Path_1285" data-name="Path 1285" d="M282.327,30.076c3.289,0,4.935-1.851,4.935-4.112,0-4.935-7.2-3.085-7.2-5.962,0-1.028.823-1.645,2.262-1.645a4.115,4.115,0,0,1,3.5,1.645l1.438-1.438a7.644,7.644,0,0,0-5.14-2.467c-3.085,0-4.729,1.851-4.729,4.112,0,4.729,7.4,3.085,7.4,5.552,0,1.234-.823,2.056-2.467,2.056s-2.467-1.028-3.289-2.056L277.187,27.2c1.234,1.234,3.085,2.879,5.14,2.879Zm-23.439-.412h2.467V16.507h-2.467V29.666Z" transform="translate(-93.798 -8.281)" fill="#757575"/>
        <path id="Path_1286" data-name="Path 1286" d="M257.333,8.633a1.645,1.645,0,1,1,0,3.289,1.77,1.77,0,0,1-1.645-1.645A1.77,1.77,0,0,1,257.333,8.633ZM253.839,26.11l.412,1.851h-2.467c-2.262,0-3.289-1.645-3.289-4.112V17.475h-2.467V15h2.467V11.094h2.467V15h2.879v2.467H250.96v6.793c0,1.851,1.438,1.851,2.879,1.851Z" transform="translate(-91.215 -6.781)" fill="#757575" fill-rule="evenodd"/>
        <path id="Path_1287" data-name="Path 1287" d="M63.4,16.392v3.085h7.2a6.208,6.208,0,0,1-1.645,3.7A7.386,7.386,0,0,1,63.4,25.438a7.857,7.857,0,0,1-7.813-8.019,7.866,7.866,0,0,1,13.167-5.962L70.808,9.4a10.7,10.7,0,0,0-7.4-3.085,11.149,11.149,0,0,0-11.1,10.9A11.141,11.141,0,0,0,63.4,28.109,9.841,9.841,0,0,0,73.679,18.034a5.115,5.115,0,0,0-.205-1.851H63.4Zm18.3-2.459a6.809,6.809,0,0,0-6.991,6.991,6.808,6.808,0,0,0,6.991,6.99,6.934,6.934,0,0,0,6.991-6.99A6.809,6.809,0,0,0,81.7,13.933Zm0,11.308a4.142,4.142,0,0,1-3.906-4.318A4.142,4.142,0,0,1,81.7,16.6,4.014,4.014,0,0,1,85.6,20.923,4.014,4.014,0,0,1,81.7,25.24Zm33.719-9.869a5.333,5.333,0,0,0-3.906-1.645,6.856,6.856,0,0,0-6.579,6.991,6.856,6.856,0,0,0,6.579,6.99,4.841,4.841,0,0,0,3.7-1.645h.205V27.09c0,2.673-1.438,4.112-3.7,4.112a3.933,3.933,0,0,1-3.5-2.467l-2.673,1.028a6.787,6.787,0,0,0,6.168,4.112c3.7,0,6.793-2.056,6.793-7.4V13.727h-2.879v1.645Zm-3.5,9.869c-2.056,0-3.7-1.851-3.7-4.318s1.645-4.318,3.7-4.318,3.7,1.851,3.7,4.318S113.975,25.24,111.92,25.24ZM96.91,13.933a6.809,6.809,0,0,0-6.991,6.991,6.808,6.808,0,0,0,6.991,6.99,6.934,6.934,0,0,0,6.991-6.99,6.693,6.693,0,0,0-6.991-6.991Zm0,11.308A4.142,4.142,0,0,1,93,20.923,4.142,4.142,0,0,1,96.91,16.6a4.009,4.009,0,0,1,3.9,4.318A4.015,4.015,0,0,1,96.9,25.24Zm23.85-18.718h3.085V27.906h-3.085V6.523Zm11.514,18.71a3.981,3.981,0,0,1-3.5-2.056l9.458-3.906-.412-.823c-.617-1.645-2.467-4.523-5.962-4.523-3.7,0-6.579,2.879-6.579,6.991a6.933,6.933,0,0,0,6.991,6.99,7.476,7.476,0,0,0,5.962-3.085l-2.467-1.645a3.981,3.981,0,0,1-3.5,2.056ZM132.07,16.6a2.756,2.756,0,0,1,2.673,1.645l-6.374,2.673c0-3.085,2.056-4.318,3.7-4.318Z" transform="translate(-52.304 -6.316)" fill="#757575"/>
      </g>
      <g id="Group_1099" data-name="Group 1099" transform="translate(80.718 0)">
        <path id="Path_1288" data-name="Path 1288" d="M14.461,34.5H2.637A2.629,2.629,0,0,1,0,31.861V26.187a2.629,2.629,0,0,1,2.629-2.629H10.1V15.239A2.629,2.629,0,0,1,12.73,12.61h8.311V34.4H14.468Z" transform="translate(0 -2.533)" fill="#ffc517" fill-rule="evenodd"/>
        <path id="Path_1289" data-name="Path 1289" d="M34.611,31.966H26.3V2.637A2.629,2.629,0,0,1,28.937,0h5.674A2.629,2.629,0,0,1,37.24,2.629v26.7A2.73,2.73,0,0,1,34.6,31.966Z" transform="translate(-5.283 0)" fill="#f57e02" fill-rule="evenodd"/>
        <path id="Path_1290" data-name="Path 1290" d="M37.164,23.562v8.311A2.629,2.629,0,0,1,34.535,34.5H26.224V12.63L37.156,23.562Z" transform="translate(-5.267 -2.537)" fill-rule="evenodd" fill="url(#linear-gradient)"/>
      </g>
    </g>
  </g>
</svg>
