<svg xmlns="http://www.w3.org/2000/svg" width="179.923" height="47.5" viewBox="0 0 179.923 47.5">
  <g id="gatsby-seeklogo.com" transform="translate(-21 -241.8)">
    <path id="Path_1186" data-name="Path 1186" d="M278.152,282.885h4.738v16.973h-4.738v-2.219a5.746,5.746,0,0,1-5.248,2.7c-5.248,0-8.636-4.078-8.636-9,0-5.1,3.389-9,8.306-9a5.916,5.916,0,0,1,5.428,2.7v-2.219h.15Zm-8.846,8.486a4.534,4.534,0,0,0,4.738,4.738,4.637,4.637,0,0,0,4.738-4.738,4.534,4.534,0,0,0-4.738-4.738A4.6,4.6,0,0,0,269.306,291.371Zm22.91-4.408v12.895h-4.738V286.963h-1.859v-4.078h1.859v-5.758h4.738v5.758h3.209v4.078Zm14.424,0a4.349,4.349,0,0,0-2.7-1.2c-1.2,0-1.859.51-1.859,1.349,0,.51.18,1.02,1.529,1.529l1.2.33c1.349.51,3.389,1.02,4.228,2.369a4.894,4.894,0,0,1,.84,2.879,5.406,5.406,0,0,1-1.859,4.228,7.594,7.594,0,0,1-5.1,1.859,8.76,8.76,0,0,1-6.627-2.879l2.549-2.879c1.02,1.02,2.369,2.039,3.718,2.039s2.369-.69,2.369-1.859a1.831,1.831,0,0,0-1.529-1.709l-1.02-.33a10.684,10.684,0,0,1-3.568-2.039,4.335,4.335,0,0,1-1.349-3.209,5.456,5.456,0,0,1,1.709-3.9,7.243,7.243,0,0,1,4.408-1.2,8.635,8.635,0,0,1,5.428,1.859C309.009,284.234,306.64,286.963,306.64,286.963Zm10.346-1.889a6.453,6.453,0,0,1,5.428-2.7c4.918,0,8.306,3.9,8.306,9s-3.389,9-8.486,9a6.55,6.55,0,0,1-5.428-2.7v2.219h-4.588V271.4h4.738C316.985,271.34,316.985,285.074,316.985,285.074Zm-.51,6.3a4.534,4.534,0,0,0,4.738,4.738,4.637,4.637,0,0,0,4.738-4.738,4.738,4.738,0,1,0-9.476,0Zm22.041,5.938-8.127-14.424H336l5.248,9.656,4.738-9.656h5.4l-13.554,25.939H332.4Zm-75.478-11.545H251.163V290.5h6.267c-1.02,3.209-3.389,5.428-7.8,5.428-4.918,0-8.486-4.078-8.486-9s3.389-9.146,8.306-9.146a9.2,9.2,0,0,1,7.137,3.568l3.9-2.549a13.448,13.448,0,0,0-11.035-5.608A13.637,13.637,0,0,0,235.9,286.933a13.555,13.555,0,1,0,27.108,0A2.232,2.232,0,0,0,263.038,285.763Z" transform="translate(-150.457 -20.723)"/>
    <path id="Path_1187" data-name="Path 1187" d="M75.3,277.522H63.429v3.389h8.157a15.423,15.423,0,0,1-9.836,11.035L42.258,272.454a15.25,15.25,0,0,1,14.424-10.166,15.617,15.617,0,0,1,12.535,6.447l2.549-2.219a18.643,18.643,0,0,0-33.226,6.957l22.37,22.371A19.091,19.091,0,0,0,75.3,277.522ZM38,277.7A18.129,18.129,0,0,0,43.428,290.6a18.389,18.389,0,0,0,12.895,5.428Z" transform="translate(-11.902 -11.972)" fill="#fff"/>
    <path id="Path_1188" data-name="Path 1188" d="M44.75,241.8A23.75,23.75,0,1,0,68.5,265.55,23.843,23.843,0,0,0,44.75,241.8ZM31.526,278.774A18.389,18.389,0,0,1,26.1,265.88L44.57,284.2A19.266,19.266,0,0,1,31.526,278.774Zm17.3,4.918L26.608,261.472a18.643,18.643,0,0,1,33.226-6.957l-2.549,2.219a15.66,15.66,0,0,0-12.535-6.447,15.426,15.426,0,0,0-14.424,10.166l19.492,19.492a15.423,15.423,0,0,0,9.836-11.035H51.527V265.55H63.4A18.694,18.694,0,0,1,48.828,283.692Z" transform="translate(0 0)" fill="#639"/>
  </g>
</svg>
