<svg xmlns="http://www.w3.org/2000/svg" width="187.246" height="53.729" viewBox="0 0 187.246 53.729">
  <g id="mailchimp" transform="translate(-20.101)">
    <g id="Group_1028" data-name="Group 1028" transform="translate(0 0)">
      <path id="Path_1217" data-name="Path 1217" d="M158.769,33.525h.045a4.3,4.3,0,0,0,4.5-4.429,5.128,5.128,0,0,0-1.049-3.324,3.688,3.688,0,0,0-2.943-1.4H159.3c-1.617,0-3.117,1.212-4.588,3.752l-.118.2-.074-.22L153.4,24.987a.593.593,0,0,0-.609-.443,1.091,1.091,0,0,0-.577.184.675.675,0,0,0-.331.461l-.009.029c-1.472,4.594-2.687,6.825-3.717,6.825a.457.457,0,0,1-.353-.147c-.27-.3-.2-1-.111-1.988l.111-2.4c-.061-1.662-.97-2.663-2.434-2.673-1.861,0-3.065,1.981-3.636,3.162l-.166.351-.035-.388c-.139-1.461-.628-3.207-2.178-3.22-1.806,0-3.182,2.119-4.022,3.9l-.225.476.023-.526.242-4.162a1.009,1.009,0,0,0-.1-.8c-.121-.139-.35-.173-.684-.173-.578.035-.874.39-1.319,1.569-.731,1.939-2.59,6.446-4.076,6.446a.9.9,0,0,1-.7-.3c-.623-.715-.374-2.644-.029-5.316l.026-.2c.163-1.264-.114-1.534-.8-1.662a1.178,1.178,0,0,0-.208-.019c-.549,0-.805.526-1.316,1.986-.921,2.6-2.078,5.34-3.449,5.34a.9.9,0,0,1-.151-.012c-.727-.121-.693-1.2-.693-2.568a14.738,14.738,0,0,0-.092-2.331c-.2-1.356-1-2.2-2.086-2.213-2.159,0-3.615,2.765-4.294,4.415l-.173.372-.052-.4-.26-3.186v-.04l.024-.031c4.039-5.087,5.852-8.758,5.878-11.9.017-2.008-.911-3.215-2.479-3.227-1.146,0-3.873.956-4.82,9.8L113.235,25l-.017.026c-1.847,2.675-5.793,7.279-9.656,7.279-3.491,0-6.275-2.822-6.275-7.792,0-6.683,4.727-10.787,8.288-10.787h.029a2.98,2.98,0,0,1,1.918.623,2.048,2.048,0,0,1,.755,1.7,3.075,3.075,0,0,1-.6,1.853l-.216.358a.47.47,0,0,0-.04.462.719.719,0,0,0,.623.26c.866,0,2.13-1.226,2.142-3.073.014-1.934-1.614-3.927-4.5-3.927-4.4,0-10.323,4.848-10.323,12.664,0,5.541,3.473,9.35,8.178,9.35,3.338,0,6.642-2.389,9.566-6.384l.18-.242.014.3.246,3.454.087,1.146a1.592,1.592,0,0,0,.235,1,.977.977,0,0,0,.814.3c.658,0,.788-.45,1.049-1.553l.076-.315c.322-1.338,1.517-5.71,3.312-5.71a.906.906,0,0,1,.68.26c.4.421.353,1.285.3,2.286a12.376,12.376,0,0,0,0,1.9c.17,1.7.9,2.524,2.239,2.533,1.373,0,2.8-1.477,3.56-2.852l.144-.26.055.291c.139.736.762,3.148,2.718,3.148,1.77,0,3.29-1.863,4.952-5.7l.218-.519-.128,5.148c0,1.061.1,1.467.6,1.467l.111.005c.471,0,.791-.28.952-.836,1.254-4.363,2.337-6.4,3.408-6.4,1.051.007,1.148,1.929,1.233,5.322l.005.239c.026,1.186.069,1.711.805,1.718.559,0,.7-.44.987-1.524l.187-.693c1.011-3.508,1.849-4.94,2.892-4.94.893.007.944.928.959,1.212a13.615,13.615,0,0,1-.1,1.983l-.1,1.825a1.979,1.979,0,0,0,2.116,2.144c1.7,0,3.234-1.991,4.58-5.908l.093-.274.107.27.855,2.445.01.038-.017.035a24.364,24.364,0,0,0-2.251,7.826c-.017,2.265,1.008,3.736,2.611,3.749h.028c.873,0,2.905-.35,2.943-3.591a22.4,22.4,0,0,0-.932-5.584l-.073-.272.234.173a5,5,0,0,0,2.639.831ZM114.953,22.517l.2-2.351c.63-4.819,1.943-8.185,3.195-8.185h.007c.6.005.9.455.89,1.342-.017,2.176-1.4,5.291-4.1,9.258l-.211.312Zm39.931,17.325a.978.978,0,0,1-.824.4,1.07,1.07,0,0,1-.9-.416c-.571-.762-.41-2.559.519-5.818l.36-1.164.109-.326.1.346c1.087,3.761,1.3,6.112.641,6.992Zm.338-9.636v-.035l-.04-.125.017-.035C156.437,27.46,157.856,26,159.091,26h.014c1.394.01,2.358,1.264,2.344,3.051a2.809,2.809,0,0,1-.973,2.244,2.909,2.909,0,0,1-1.828.658,4.453,4.453,0,0,1-3.407-1.737ZM159.072,26.1Zm-82.85,6.986c1.912-.152,3.428-2.77,3.993-3.865l.145-.286.055.317c.27,1.562,1.12,4.19,3.78,4.207h.022a5.722,5.722,0,0,0,3.775-2.034l.1-.1.069.118a3.818,3.818,0,0,0,3.347,2.209,3.213,3.213,0,0,0,3.117-2.337.776.776,0,0,0-.17-.606.392.392,0,0,0-.589-.038l-.087.081A3.71,3.71,0,0,1,91.651,32q-1.621.078-2.395-1.925l-.021-.055.035-.047c2.971-3.884,5.056-9.812,4.848-13.788-.1-1.841-.63-4.034-2.64-4.034l-.149,0a2.97,2.97,0,0,0-2.081,1.091c-1.865,2.086-2.84,7.22-2.486,13.081a13.177,13.177,0,0,0,.629,3.382l.017.059-.04.047c-1.1,1.288-2.189,2-3.061,2-2.1,0-2.029-3.52-1.863-6.441.035-.63.09-1.03-.1-1.259a.841.841,0,0,0-.68-.246h-.038c-.748,0-.9.173-1.286,1.264-.8,2.3-2.365,6.169-3.944,6.169a1.269,1.269,0,0,1-1-.445c-.765-.977-.184-3.416.282-5.376l.234-1a1.2,1.2,0,0,0-.093-1.008,1.061,1.061,0,0,0-.928-.255c-.693.052-1.108.338-1.316,1.624l-.042.267-.173-.173a2.205,2.205,0,0,0-1.939-.956l-.291.012a5.3,5.3,0,0,0-3.39,2.074,6.943,6.943,0,0,0-1.492,4.935l.035.277.007.052-.035.038a2.822,2.822,0,0,1-2.008,1.091c-1.034-.007-1.628-.776-1.628-2.057,0-2.156,1.461-8.657,1.461-11.009,0-2.5-1.115-3.866-3.053-3.882H61c-2.829,0-5.033,3.21-7.144,9.817L53.27,27.23l-.294.994.087-1.032.4-6.654c.1-3.191-.326-5.246-1.319-6.28a2.849,2.849,0,0,0-2.164-.84h-.024c-3.463,0-5.12,5.838-6.328,9.956L42.063,29.34l.284-.462.79-11.746c-.045-3.52-1.215-5.1-3.8-5.118H39.3a4,4,0,0,0-2.9,1.264,5.034,5.034,0,0,0-1.43,3.442c.017.693.454,1.34.784,1.34.215,0,.334-.286.384-.457.8-2.644,1.835-3.93,3.163-3.93a1.65,1.65,0,0,1,1.269.5c1.039,1.113.866,4.121.507,9.578l-.341,6.02-.066,1.122c-.1,1.558-.182,2.819.416,2.912a1.288,1.288,0,0,0,1.558-.963l2.909-9.961c1.6-5.471,2.8-7.459,4.351-7.459,1.783,0,1.917,3.065,1.593,9.532l-.272,5.295c-.069,1.4-.121,2.5.277,2.943a.675.675,0,0,0,.519.2c.774,0,1-.693,1.392-1.8l.222-.632C56.286,23.64,58.248,17.3,60.88,17.3c.788,0,1.385.641,1.385,1.891,0,2.886-1.411,8.462-1.411,11.289a3.937,3.937,0,0,0,.841,2.563,2.947,2.947,0,0,0,2.285,1.013H64a4.155,4.155,0,0,0,2.725-1.271l.087-.078.069.1a3,3,0,0,0,2.666,1.183,4.516,4.516,0,0,0,3.518-2.956l.1-.268.1.268a2.833,2.833,0,0,0,2.95,2.1ZM91.289,13.981h.028a.6.6,0,0,1,.488.277c.649.878.658,4.081-.457,7.727a25.964,25.964,0,0,1-2.481,5.691l-.173.26-.04-.3-.213-2.6c-.284-5.511,1.382-11,2.834-11.074ZM73.144,26.856c-.571,2.3-1.669,5.082-3.648,5.241l-.161.007c-.821,0-1.281-.519-1.385-1.6A5.5,5.5,0,0,1,69.4,26.547a2.872,2.872,0,0,1,2.008-1.065h.014a2,2,0,0,1,1.693,1.306l.014.035Zm9.177-8.443A1.292,1.292,0,1,0,82.3,21l.01.1V21a1.293,1.293,0,1,0,.01-2.585Zm45.918,0A1.292,1.292,0,1,0,128.218,21l.01.1V21a1.293,1.293,0,1,0,.01-2.585Z" transform="translate(44.031 0.832)" fill="#010101"/>
      <g id="Group_1029" data-name="Group 1029" transform="translate(20.101 0)">
        <path id="Path_1218" data-name="Path 1218" d="M47.917,39.248c0-.085-.022-.155-.022-.256,0-.062-.022-.109-.022-.15a2.2,2.2,0,0,0-.085-.363,2.063,2.063,0,0,0-.385-.662,2.163,2.163,0,0,0-.555-.45,4.181,4.181,0,0,0-.6-.214c-.062,0-.109-.022-.15-.022a3.152,3.152,0,0,0-.256-2.178l.043-.043.662-.729.043-.042a2.341,2.341,0,0,0,.3-.62,1.834,1.834,0,0,0,.085-.47v-.406a3.03,3.03,0,0,0-.279-1.175,2.379,2.379,0,0,0-.465-.662,2.636,2.636,0,0,0-.706-.555c-.022-.022-.043-.022-.062-.043a10.4,10.4,0,0,0-1.794-1.986l-.812-.64-.533-.385a3.62,3.62,0,0,0-.533-.341l-.465-.3c-.062-.062-.109-.085-.129-.109a.15.15,0,0,0-.022-.062,1.032,1.032,0,0,1-.022-.3l.022-.961.192-2.862.022-1.132a8.246,8.246,0,0,0-.214-1.56c-.022-.109-.062-.214-.085-.321a.462.462,0,0,0-.062-.155,1.518,1.518,0,0,0-.085-.214.408.408,0,0,0-.062-.129,2.064,2.064,0,0,0-.15-.321l-.022-.022-.022-.062-.022-.043a3.116,3.116,0,0,0-.363-.512,7.906,7.906,0,0,0-.363-1.217,6.125,6.125,0,0,0-.705-1.368l-.363-.47.042-.043A21.87,21.87,0,0,0,41.67,11c2.2-3.824,1.473-6.153.47-7.433l-.022-.042L42.1,3.481a6.08,6.08,0,0,0-3.887-1.923C34.855,1.13,31.053,2.8,30.05,3.267L28.2,1.26a3.8,3.8,0,0,0-.533-.47L27.047.434A5,5,0,0,0,25.636.05,9.244,9.244,0,0,0,22.225.37a23.059,23.059,0,0,0-6.109,2.713,42.934,42.934,0,0,0-6.642,5,41.638,41.638,0,0,0-6.522,7.478A22.077,22.077,0,0,0,.987,19.127a12.1,12.1,0,0,0-.94,3.2A5.785,5.785,0,0,0,.11,24.348a3.865,3.865,0,0,0,.854,1.667L2.865,28l.214.214-.022.022L3,28.364c-.042.062-.062.129-.109.155l-.062.129c-.022.062-.062.129-.085.192l-.062.129c-.022.062-.062.129-.085.192a.3.3,0,0,0-.043.129l-.062.192c-.022.043-.022.085-.043.129l-.062.214c0,.022-.022.043-.022.062s-.022.043-.022.062l-.062.214c0,.043-.022.085-.022.129,0,.022-.022.062-.022.085,0,.042-.022.085-.022.129s-.022.085-.022.129c-.022.085-.022.155-.043.279A.157.157,0,0,1,2.124,31v.022c0,.062-.022.129-.022.155,0,.085-.022.192-.022.279v1.085a.269.269,0,0,0,.022.129.391.391,0,0,0,.022.155v.062c0,.043.022.109.022.15s.022.085.022.149a.071.071,0,0,0,.022.062c0,.022.022.062.022.085v.043a.616.616,0,0,0,.043.155c0,.022,0,.022.022.043a.233.233,0,0,1,.022.109l.022.043c0,.022,0,.022.022.042l.022.043v.062c0,.022,0,.022.022.043l.022.043c0,.043.022.062.022.109a1.2,1.2,0,0,1,.043.155v0c0,.022,0,.022.022.043a.743.743,0,0,1,.042.129.728.728,0,0,1,.062.155l.022.022c.022.043.022.085.043.109l.022.043c0,.022.022.042.022.062a.172.172,0,0,0,.043.085l.022.043c.022.022.022.062.042.085a.082.082,0,0,1,.022.062.788.788,0,0,1,.062.15l.022.022c.022.022.022.043.043.062s.022.062.042.085a.311.311,0,0,1,.062.129l.022.022c.022.022.022.043.043.062.022.042.043.062.043.085a.345.345,0,0,1,.062.109v.022c.022.022.022.043.042.062a.309.309,0,0,0,.062.085.892.892,0,0,1,.085.129c.022.022.042.042.042.062a.435.435,0,0,0,.062.085.5.5,0,0,1,.062.109c.022.022.043.062.062.085a.171.171,0,0,0,.085.085l.085.085c.043.043.062.085.109.129l.344.344a.9.9,0,0,1,.149.149l.022.022c.022.022.042.022.062.062a1.56,1.56,0,0,0,.192.155l.043.022.022.022.043.022a1.38,1.38,0,0,1,.155.129l.022.022a.067.067,0,0,0,.043.022l.043.043c.043.043.085.062.129.109l.042.022.062.062c.043.022.109.062.149.085a.111.111,0,0,0,.085.042l.042.022L5.6,38.1h.022a1.853,1.853,0,0,1,.214.129l.043.022.256.129h.07l.039.012.129.062c.022,0,.043.022.062.022.022.022.043.022.085.043h.022a.3.3,0,0,0,.129.043h.022a.788.788,0,0,0,.15.062h.022l.043.022c.022,0,.043.022.062.022h.022l.214.062H7.23a1.929,1.929,0,0,0,.321.085H7.6l.279.062h.085a.939.939,0,0,0,.256.043h.085c.062,0,.109.022.155.022,0,.022.022.043.022.062l.47,1.194c2.521,6.985,9.5,12.41,17.474,13.412,7.97.983,16.49-4.315,19.949-11.471q.216-.4.406-.811a3.766,3.766,0,0,0,.775-1.11,1.392,1.392,0,0,0,.321-1.112M3.645,36.316" transform="translate(0.01 0)" fill="#664f44"/>
        <path id="Path_1219" data-name="Path 1219" d="M40.581,3.809a4.217,4.217,0,0,0-1.324-.983.974.974,0,0,0-.279-.085c-.042-.022-.085-.062-.129-.085A5.534,5.534,0,0,0,37.5,2.314a14.058,14.058,0,0,0-6.45,1.154c-.085.042-.155.062-.256.109l-.385.155-.662.3c-.043.022-.062.022-.109.042l-.406-.47-.192-.214L28.889,3.2l-.062-.085L27.269,1.317l-.129-.15L26.985.975h-.022l-.465.109-.512.109a4.053,4.053,0,0,0-1-.279,7.808,7.808,0,0,0-2.862.279,18.641,18.641,0,0,0-3.695,1.431A38.257,38.257,0,0,0,9.943,8.582L7.166,11.335,4.9,14.027a24.166,24.166,0,0,0-3.1,5.148,10.293,10.293,0,0,0-.833,2.841,4.2,4.2,0,0,0,.042,1.56l.129.385a2.351,2.351,0,0,0,.406.662l1.73,1.814.192.192.022-.022a.667.667,0,0,1,.171-.171l.085-.085a2.061,2.061,0,0,1,.149-.155A.262.262,0,0,1,4,26.11c.047-.023.062-.062.109-.085l.043-.042c.042-.022.062-.062.109-.085.042-.043.105-.085.149-.129.022-.022.062-.043.085-.062h.022a1.22,1.22,0,0,0,.155-.129.419.419,0,0,0,.109-.085,1.22,1.22,0,0,0,.155-.129c.043-.022.062-.042.109-.062a.89.89,0,0,1,.192-.109,1.233,1.233,0,0,1,.109-.062c.062-.043.129-.062.192-.109a1.044,1.044,0,0,1,.109-.062l.042-.022a1.18,1.18,0,0,0,.155-.085c.022-.022.062-.022.085-.043a.9.9,0,0,1,.15-.062l.129-.062.043-.022.321-.129c.043-.022.062-.022.109-.043s.062-.022.109-.043l.042-.022c.022,0,.043-.022.062-.022.043-.02.087-.02.15-.042h.043c.062-.022.109-.022.155-.043s.109-.022.15-.042c.062-.022.129-.022.192-.043.022,0,.043-.022.085-.022a.128.128,0,0,0,.085-.022.578.578,0,0,1,.192-.022c.064,0,.109-.022.155-.022s.085-.022.129-.022h.155l.729.022H9.16a6.814,6.814,0,0,1,.853.129c.062.022.15.022.214.042.022-.022.022-.062.043-.085l.492-.853a32.074,32.074,0,0,1,3.033-4.248l1.09-1.2a27.219,27.219,0,0,1,4.4-3.721l.9-.6,1.154-.682.853-.465,1.217-.577.321-.129.426-.155a1.8,1.8,0,0,0-.341-.022h-.428a1.8,1.8,0,0,0-.341.022l-.682.062c-.085.022-.149.022-.236.043a10.807,10.807,0,0,1,1.687-.684l1.085-.256a8.271,8.271,0,0,1,1.324-.155l.769-.022.662.022a6.723,6.723,0,0,1,1.132.149,1.96,1.96,0,0,0-.363-.363,3.854,3.854,0,0,0-.775-.428l-.279-.109a.741.741,0,0,0-.155-.043,2.074,2.074,0,0,1,.341-.043l.363-.043a10.586,10.586,0,0,1,2.563.109,8.5,8.5,0,0,1,1.282.341,2,2,0,0,0-.47-.577,4.766,4.766,0,0,0-.406-.3l.769.214a12.645,12.645,0,0,1,1.6.62l.385.192c.042.022.062.043.085.043l.6.363a1.494,1.494,0,0,0-.363-.64c-.042-.043-.085-.109-.129-.149h.022c.022,0,.043.022.085.022a.441.441,0,0,1,.109.042,5.574,5.574,0,0,1,.726.321c.022,0,.022.022.043.022l.129.062a2.406,2.406,0,0,1,.321.192l.321.192.155.109a2.16,2.16,0,0,1,.341.279c.129.109.233.214.341.321l.062.062.233.256a3.878,3.878,0,0,1,.406.555,4.791,4.791,0,0,1,.363.775c0,.022,0,.042.022.042l.341-.363c1.234-1.451,4.951-6.149,2.709-9.012" transform="translate(0.521 0.479)" fill="#132134"/>
        <path id="Path_1220" data-name="Path 1220" d="M45.432,34.594a1.082,1.082,0,0,0-.129-.62.076.076,0,0,0-.022-.043l-.085-.085a.93.93,0,0,0-.149-.129.345.345,0,0,0-.109-.062,1.442,1.442,0,0,0-.363-.107,1.707,1.707,0,0,0-.341-.022H44.08v.042c0,.022.022.043.022.085,0,.022,0,.043.022.043a2.149,2.149,0,0,1,.062.256.15.15,0,0,1-.022.062v.022a3.376,3.376,0,0,1-.62.918,1.833,1.833,0,0,1-.214.233c-1.085,1.112-3.376,2.67-8.244,3.546a16.794,16.794,0,0,1-4.466.085,6.249,6.249,0,0,1-4.038-1.687,1.622,1.622,0,0,1-.155-.214l-.109-.155c-.022-.022-.022-.042-.042-.062a3.365,3.365,0,0,1-.406-1.6,3.008,3.008,0,0,1,.555-1.752,2.061,2.061,0,0,1,1.09-.811,1.83,1.83,0,0,1,.682-.085.713.713,0,0,1,.192.022l.662.085a.128.128,0,0,1,.085.022,22.664,22.664,0,0,0,4.124.149A18.038,18.038,0,0,0,44.5,28.071v-.022a1.662,1.662,0,0,0-.385-1.217,1.914,1.914,0,0,0-.214-.192c-.043-.043-.109-.062-.149-.109a.88.88,0,0,1-.15-.085l-.192-.129V26.3a.441.441,0,0,0-.085-.129,10.9,10.9,0,0,0-2.906-2.791,3.2,3.2,0,0,0-.428-.279c-1.175-.729-1.346-.961-1.24-2.906l.192-2.884.022-.47v-.62c0-.109-.022-.214-.022-.3a.272.272,0,0,0-.022-.129c-.022-.109-.022-.214-.042-.321,0-.043-.022-.109-.022-.149a.349.349,0,0,0-.043-.155c-.022-.047-.022-.109-.042-.149a.6.6,0,0,1-.043-.192c0-.022-.022-.043-.022-.062s-.022-.043-.022-.062v-.022l-.022-.062a.3.3,0,0,1-.043-.129v-.022l-.022-.043-.022-.042c-.043-.085-.062-.155-.109-.236l-.022-.062-.129-.214-.042-.042c-.043-.043-.062-.085-.109-.129l-.043-.062a.93.93,0,0,0-.129-.149v-.155l-.062-.3c0-.022-.022-.062-.022-.085v-.022c0-.043-.022-.062-.022-.109a1.7,1.7,0,0,0-.085-.256c0-.022-.022-.062-.022-.085l-.062-.192c-.022-.043-.022-.085-.043-.109a.77.77,0,0,0-.085-.192l-.062-.129c-.022-.062-.062-.129-.085-.192l-.062-.129c-.043-.062-.062-.129-.109-.192l-.062-.129L37.08,11a1.231,1.231,0,0,1-.062-.109c-.022-.022-.043-.062-.062-.085a1.56,1.56,0,0,1-.155-.192l-.043-.022-.236-.233-.022-.022a.509.509,0,0,1-.105-.085h-.022a1.231,1.231,0,0,0-.109-.062l-.022-.022-.192-.109c-.022-.022-.062-.022-.109-.042l-.726-.236a.071.071,0,0,1-.062-.022,4.553,4.553,0,0,0-.812-.155c-.109-.022-.192-.022-.3-.043a.416.416,0,0,1-.15-.022h-.062L33.148,9.5h-.067a3.962,3.962,0,0,0-.876.085,1.448,1.448,0,0,1,.428-.341,3.768,3.768,0,0,1,.465-.214,2.318,2.318,0,0,0-.385.043c-.042,0-.085.022-.129.022a.128.128,0,0,0-.085.022h-.039a.071.071,0,0,0-.062.022,11.025,11.025,0,0,0-1.667.535l-.129.062h-.022a.2.2,0,0,0-.109.022,1.892,1.892,0,0,1,.94-.876c.043-.022.109-.043.15-.062.022,0,.022,0,.043-.022.043-.022.085-.022.109-.043a.363.363,0,0,1,.109-.022h-.341a5.086,5.086,0,0,0-1.944.64,7.882,7.882,0,0,0-1.023.682.89.89,0,0,1-.233.043l-2.692.682-1.09.363-.853.321-.62.256a14.584,14.584,0,0,0-4.165,2.713l-.578.578a.707.707,0,0,1-.149.155,6.586,6.586,0,0,0-.662.833c-.15.214-.3.465-.428.682l-.022.022a8.785,8.785,0,0,0-.726,1.582c-.109.279-.192.577-.279.876l-.062.236-.022.042a7.9,7.9,0,0,0-.186,1.008c0,.062-.022.129-.022.214l-.043.533a3.609,3.609,0,0,0-.022.492v.662l.022.577v.022a5.977,5.977,0,0,0,.043.6c0,.085.022.155.022.256v.062a.4.4,0,0,0,.022.149l.085.682c0,.062.022.129.022.192l.109.6a3.156,3.156,0,0,1-.022-.64c0-.085.022-.192.022-.279a2.869,2.869,0,0,1,.15-.705l.062-.192c0-.022.022-.043.042-.085.047-.118.105-.233.155-.341.022.085.022.155.042.236V24.6a15.1,15.1,0,0,0,.233,2.349s.022-1.346.256-1.516A26.659,26.659,0,0,0,17.7,28.9a1.148,1.148,0,0,0,.15.279v-.256L17.8,27.533v-.15l.961,1.772.3.512a7.532,7.532,0,0,0-1.794,2.5l-.214.512-.109.3c0,.022-.022.062-.022.085l-.062.214c0,.042-.022.062-.022.109l-.062.214c0,.043-.022.062-.022.109l-.062.321a1.645,1.645,0,0,0-.043.321.2.2,0,0,1-.022.109c0,.085-.022.15-.022.233a.272.272,0,0,1-.022.129c0,.085-.022.149-.022.233V35.8a1.389,1.389,0,0,0,.022.279v.062a2.218,2.218,0,0,0,.042.341.2.2,0,0,0,.022.109.9.9,0,0,0,.043.236c0,.043.022.085.022.129.022.062.022.15.043.214,0,.043.022.085.022.129a.616.616,0,0,1,.043.214,1.346,1.346,0,0,1,.043.15l.062.214c.022.043.022.085.043.129l.062.214c.022.043.022.085.043.129.022.085.062.155.085.233.022.042.022.062.042.109l.321.705c.022.043.042.062.062.109l.129.256a.462.462,0,0,0,.085.129c.043.062.085.15.129.214.022.043.062.085.085.129a1.532,1.532,0,0,0,.149.214,1.121,1.121,0,0,1,.109.15l.149.214a1.2,1.2,0,0,1,.109.149,1.731,1.731,0,0,1,.155.214c.043.042.062.085.109.129a1.834,1.834,0,0,0,.214.233l.109.109.321.341a2.195,2.195,0,0,1-.15-.256.159.159,0,0,1-.043-.109l-.062-.129a.788.788,0,0,1-.062-.15,3.832,3.832,0,0,1-.3-1.538l.192.256a4.644,4.644,0,0,0,.279.555.961.961,0,0,1,.107.214l.555.961.775,1.154a7.625,7.625,0,0,1-.428-1.132.76.76,0,0,1-.022-.3,2696.149,2696.149,0,0,0,.171.171l.192.256.043.043c.043.043.062.109.109.15a1.316,1.316,0,0,0,.149.192l1.5,1.752a2.521,2.521,0,0,0,.363.279l-.62-1.112c1.4,1.154,7.263,2.628,13.024.983a17.6,17.6,0,0,0,2.072-.747l1.217-.6.062-.042.833-.492.62-.406,1.023-.769c.022-.022.043-.043.062-.043l.919-.876a13.013,13.013,0,0,0,1.025-1.217l.022-.022.214-.3.022-.022a1.23,1.23,0,0,0,.062-.109l.3-.428a1.042,1.042,0,0,0,.062-.109,1.344,1.344,0,0,1,.15-.233l.109-.155a.89.89,0,0,0,.109-.192l.192-.341.062-.129.129-.256.062-.13.022-.042c.043-.109.109-.214.15-.321v-.022a4.812,4.812,0,0,0,.465-.492c.022-.022.043-.043.043-.062a3.5,3.5,0,0,0,.214-1.023m-34.364-4.2a.157.157,0,0,0-.022-.085l-.149-1.132v-.085c-.062.022-.129.109-.214.214a1.033,1.033,0,0,0-.085.149,6.926,6.926,0,0,0-.363.876l.042-.512v-.062l.062-.535v-.062a4.364,4.364,0,0,1,.109-.6.157.157,0,0,1,.022-.085v-.022a.071.071,0,0,1,.022-.062c0-.043.022-.062.022-.109l.085-.465.062-.363v-.043c0-.022,0-.043.022-.043v-.042c0-.022.022-.062.022-.085a.069.069,0,0,1,.022-.062,1.015,1.015,0,0,1,.022-.109c0-.023.022-.062.022-.085a.864.864,0,0,1,.022-.105.072.072,0,0,1,.022-.062c0-.022,0-.042.022-.042,0-.043.022-.062.022-.085v-.062l-.042.043c-.043.022-.062.062-.109.085l-.043.042a.666.666,0,0,0-.109.129L10.528,27,10.4,27.2l-.022.022c0,.022-.022.022-.022.043l-.062.129v.042c-.022.062-.062.129-.085.192l-.155.492c-.022.043-.022.109-.043.129l-.042.192v0a.349.349,0,0,1,.022-.155c0-.109.022-.236.022-.341a1.244,1.244,0,0,1,.043-.279.128.128,0,0,1,.022-.085c0-.042.022-.085.022-.129s.022-.085.022-.129v-.062c0-.043.022-.109.022-.149v-.149a.071.071,0,0,1,.022-.062.761.761,0,0,0,.043-.214v-.022c.022-.043.022-.109.043-.15v-.062c.022-.109.062-.214.085-.321v-.043a.071.071,0,0,1,.022-.062l.149-.492v-.022l.149-.406v-.022l.062-.155c.043-.085.062-.155.109-.256a.627.627,0,0,1,.062-.149c.022-.022.022-.062.042-.085a.77.77,0,0,0,.062-.149l.022-.042.363-.662c.022-.022.022-.062.042-.085v-.022l.022-.043c.043-.062.085-.15.129-.214l.155-.3.256-.465a.282.282,0,0,1,.062-.109c-.022,0-.129-.085-.3-.192l-.876-.47-.363-.155-.492-.192c-.043-.022-.085-.022-.129-.043l-.426-.129-.3-.062c-.085-.022-.155-.022-.256-.043a.269.269,0,0,1-.129-.022.272.272,0,0,1-.129-.022c-.109,0-.236-.022-.341-.022H8.118a3.954,3.954,0,0,0-.726.064h-.04a5.219,5.219,0,0,0-1.24.321l-.406.155c-.042.022-.062.043-.109.043l-.129.062a6.956,6.956,0,0,0-1.09.729h-.02a5.159,5.159,0,0,0-.775.775l-.192.256a3.118,3.118,0,0,0-.214.321,5.591,5.591,0,0,0-.363.62,1.228,1.228,0,0,0-.109.236c0,.022-.022.022-.022.042a6.532,6.532,0,0,0-.465,1.623c-.022.105-.022.214-.043.341v.043c0,.085-.022.155-.022.279v.385a1.085,1.085,0,0,0,.022.256v.109c0,.062.022.129.022.192v.022a.2.2,0,0,0,.022.109c0,.062.022.129.022.155s.022.085.022.129c.022.062.022.109.042.155a.309.309,0,0,0,.043.129v.022l.022.043v.042l.022.043c.022.042.022.085.043.129s.022.109.042.15a.318.318,0,0,1,.043.149l.022.043c.022.042.022.062.042.109a1.081,1.081,0,0,1,.062.149l.062.129c.022.022.022.042.042.062s.022.043.043.062l.062.129a.547.547,0,0,0,.085.15A.705.705,0,0,0,3,30.063l.085.149a.733.733,0,0,1,.062.109.636.636,0,0,0,.107.149.392.392,0,0,0,.062.085c.043.042.062.109.109.149.022.022.043.062.062.085.042.043.085.109.129.15a.243.243,0,0,1,.062.085c.042.043.085.109.129.15l.062.062a.97.97,0,0,0,.149.15l.212.212c.022.022.043.043.062.043a1.138,1.138,0,0,1,.155.149c.022.022.043.022.062.042a1.38,1.38,0,0,1,.155.129c.022.022.043.022.043.043l.192.129.042.022.192.129.043.022.214.129.042.022a.992.992,0,0,0,.214.109l.043.022.236.109.022.022c.085.043.155.062.233.109H6.2c.085.022.155.062.256.085h.022c.043.022.085.022.129.042s.085.022.15.043h.022l.279.062a1.241,1.241,0,0,0,.279.042l.9.085h.214a1.383,1.383,0,0,0,.3-.022c.129-.022.279-.022.428-.043l.363-.062.555-.15a3.8,3.8,0,0,0,1.324-.6L11.081,30.6a.521.521,0,0,1-.087-.217" transform="translate(1.201 4.805)" fill="#90694c"/>
        <path id="Path_1221" data-name="Path 1221" d="M25.466,3.032,25.4,2.179l.428-.94.155-.043a4.059,4.059,0,0,0-1-.279,7.808,7.808,0,0,0-2.862.279,18.641,18.641,0,0,0-3.695,1.431,38.216,38.216,0,0,0-8.481,5.96L7.154,11.342,4.89,14.034a24.166,24.166,0,0,0-3.1,5.148,10.187,10.187,0,0,0-.833,2.841A4.165,4.165,0,0,0,1,23.582l.129.385a2.279,2.279,0,0,0,.406.662l1.737,1.814.192.192.022-.022a.586.586,0,0,1,.155-.155l.084-.084a1.6,1.6,0,0,1,.149-.155.29.29,0,0,1,.109-.085c.047-.023.062-.062.109-.085l.042-.043c.043-.022.062-.062.109-.085.043-.043.109-.085.15-.129.022-.022.062-.043.085-.062H4.5a1.22,1.22,0,0,0,.155-.129.488.488,0,0,0,.109-.085,1.22,1.22,0,0,0,.155-.129,1.232,1.232,0,0,1,.109-.062.89.89,0,0,1,.192-.109,1.042,1.042,0,0,1,.109-.062c.062-.042.129-.062.192-.109.043-.022.062-.042.109-.062l.042-.022a18.907,18.907,0,0,1,1.837-3.675,36.823,36.823,0,0,1,3.721-4.912l3.076-3.1a45.415,45.415,0,0,1,4.357-3.5l2.884-1.837a1.69,1.69,0,0,1,.279-.15l.747-.406,1.582-.747-.256-.3-.042-.043-.321-.363L21.761,3.791l.022-1.538-.022-.022,1.261-.385,2.394,1.222" transform="translate(0.514 0.481)" fill="#2f83c1"/>
        <path id="Path_1222" data-name="Path 1222" d="M44.071,33.067a1.082,1.082,0,0,0-.129-.62.076.076,0,0,0-.022-.043l-.085-.085a.906.906,0,0,0-.149-.129.345.345,0,0,0-.109-.062,1.554,1.554,0,0,0-.363-.109A1.707,1.707,0,0,0,42.874,32h-.155v.042c0,.022.022.043.022.085,0,.022,0,.043.022.043a2.149,2.149,0,0,1,.062.256.15.15,0,0,1-.022.062v.022a3.376,3.376,0,0,1-.62.918,1.834,1.834,0,0,1-.214.233c-1.085,1.112-3.376,2.67-8.244,3.546a16.794,16.794,0,0,1-4.466.085A6.249,6.249,0,0,1,25.221,35.6a1.621,1.621,0,0,1-.155-.214l-.109-.155c-.022-.022-.022-.042-.042-.062a3.365,3.365,0,0,1-.406-1.6,3.008,3.008,0,0,1,.555-1.752,2.061,2.061,0,0,1,1.09-.811,1.83,1.83,0,0,1,.682-.085.713.713,0,0,1,.192.022l.662.085a.128.128,0,0,1,.085.022A22.663,22.663,0,0,0,31.9,31.2a18.038,18.038,0,0,0,11.235-4.656V26.52a1.662,1.662,0,0,0-.385-1.217,1.914,1.914,0,0,0-.214-.192c-.043-.043-.109-.062-.149-.109a.88.88,0,0,1-.15-.085l-.192-.129v-.022a.441.441,0,0,0-.085-.129,10.9,10.9,0,0,0-2.906-2.791,3.2,3.2,0,0,0-.428-.279c-1.175-.729-1.346-.961-1.24-2.906l.192-2.884.022-.47v-.62c0-.109-.022-.214-.022-.3a.272.272,0,0,0-.022-.129c-.022-.109-.022-.214-.042-.321,0-.043-.022-.109-.022-.149a.349.349,0,0,0-.043-.155c-.022-.047-.022-.109-.042-.149a.6.6,0,0,1-.043-.192c0-.022-.022-.043-.022-.062s-.022-.043-.022-.062v-.022l-.022-.062a.3.3,0,0,1-.043-.129v-.022l-.022-.043-.022-.042c-.043-.085-.062-.155-.109-.236l-.022-.062-.129-.214-.042-.042c-.043-.043-.062-.085-.109-.129l-.043-.062a.93.93,0,0,0-.129-.149l-.155-.155a.89.89,0,0,0-.192-.109.077.077,0,0,0-.062-.022l-.129-.062c-.022,0-.043-.022-.062-.022-.043-.022-.085-.022-.109-.043-.022,0-.042-.022-.085-.022s-.062-.022-.109-.022h-.47a.072.072,0,0,0-.062.022.071.071,0,0,0-.062.022.537.537,0,0,0-.149.043h-.042l-.363.129-.042.022a.788.788,0,0,1-.15.062l-.062.022-.129.062-.062.042-.129.062-.062.043c-.043.022-.085.062-.129.085l-.043.022c-.043.043-.109.062-.15.109l-.022.022a1.552,1.552,0,0,1-.155.109l-.321.214-.279.192-.043.022a1.906,1.906,0,0,1-.278.171L32.483,13a2.377,2.377,0,0,1-.279.155l-.042.022a1.349,1.349,0,0,1-.3.15l-.042.022-.3.129-.043.022c-.109.043-.214.062-.321.109h-.016l-.341.062-.6.043a8.007,8.007,0,0,1-.983-.062l-.321-.062a1.016,1.016,0,0,1-.109-.022l-.853-.192c-.129-.022-.233-.062-.363-.085l-.6-.129a1.015,1.015,0,0,1-.109-.022c-.023,0-.062-.022-.085-.022-.043,0-.085-.022-.129-.022s-.085-.022-.129-.022h-.042a1.015,1.015,0,0,1-.109-.022.967.967,0,0,0-.279-.043.128.128,0,0,1-.085-.022c-.062,0-.129-.022-.192-.022a.2.2,0,0,1-.109-.022c-.062,0-.109-.022-.155-.022H24.57c-.109,0-.192.022-.3.022h-.085c-.062,0-.129.022-.192.022h-.022c-.043,0-.062.022-.109.022-.062.022-.129.022-.192.043a1.1,1.1,0,0,0-.109.022.6.6,0,0,1-.192.042c-.042,0-.062.022-.109.043l-.214.062c-.043.022-.062.022-.085.043l-.3.129a6.791,6.791,0,0,0-2.051,1.837,7.97,7.97,0,0,0-.513.769,6.439,6.439,0,0,0-.426.876c-.043.085-.062.155-.109.256l-.15.465c0,.022,0,.043-.022.043l-.129.533a5.282,5.282,0,0,0-.085.555,1.4,1.4,0,0,0-.022.3,5.076,5.076,0,0,0,0,.812v.062a.8.8,0,0,0,.022.214l.085.577a.616.616,0,0,1,.043.214c.022.062.022.129.043.192A4.931,4.931,0,0,0,19.9,22.4a7.5,7.5,0,0,0,3.411,2.926l1.282.492-.043.043-.279.062-.533.155a4.832,4.832,0,0,0-.729.279,8.487,8.487,0,0,0-2.137,1.24c-.085.062-.155.149-.256.214a3.466,3.466,0,0,0-.406.406l-.109.109a1.6,1.6,0,0,1-.15.155l-.062.062a.781.781,0,0,0-.155.256,1.4,1.4,0,0,0-.155.256,4.511,4.511,0,0,0-.577,2.585V31.6a.071.071,0,0,1,.022-.062v-.022c0-.022.022-.043.022-.085v-.022a.818.818,0,0,0,.022-.109c0-.047.022-.062.043-.109v-.026c.022-.042.022-.085.042-.129v-.022c.022-.043.022-.085.043-.129v-.022a.96.96,0,0,0,.064-.15l.022-.022a.519.519,0,0,1,.085-.149l.129-.236c.022-.022.043-.062.062-.085l.022-.022.129-.192c.042-.043.085-.109.129-.149l.043-.043c.042-.043.062-.085.109-.109l.043-.043a.843.843,0,0,0,.149-.149,6.947,6.947,0,0,0-.512,3.721v-.321a.269.269,0,0,1,.022-.129.272.272,0,0,1,.022-.129v-.022c0-.043.022-.109.022-.15v-.043c.022-.062.022-.109.043-.155v-.022a.741.741,0,0,0,.043-.155c0-.026.022-.043.022-.062l.022-.042c.022-.043.042-.109.062-.15a.782.782,0,0,1,.109-.192.076.076,0,0,1,.022-.043l.129-.192-.042,1.132a1.4,1.4,0,0,0,.022.3.587.587,0,0,0,.022.192,8.7,8.7,0,0,1,.341-1.861,8.576,8.576,0,0,0-.341,1.861,8.579,8.579,0,0,0,.6,3.695,3,3,0,0,1,.129-1.923l.129.256.155,1.132a7.975,7.975,0,0,0,1.965,4.549,2.68,2.68,0,0,1-.492-1.709l.155.341a10.2,10.2,0,0,0,1.346,2.016s-.465-.875-.341-1.085A11.456,11.456,0,0,0,25.8,42.339l-.62-1.023-.022-.022c2.171,1.582,5.148,2.171,8.838,1.132a14.35,14.35,0,0,0,1.965-.682l1.217-.6.062-.042.833-.492.62-.406,1.023-.769c.022-.022.042-.042.062-.042l.919-.876A11.092,11.092,0,0,0,41.721,37.3l.022-.022a2.558,2.558,0,0,0,.214-.3l.022-.022a1.045,1.045,0,0,0,.062-.109l.3-.428c.022-.042.042-.062.062-.105a1.38,1.38,0,0,1,.15-.236l.109-.155a.89.89,0,0,0,.109-.192l.192-.341.062-.129.214-.428c.043-.109.109-.214.15-.321v-.022A4.813,4.813,0,0,0,43.853,34c.022-.022.043-.043.043-.062a1.582,1.582,0,0,0,.274-.893M9.594,27.558c-.062.022-.129.109-.214.214a1.033,1.033,0,0,0-.085.149,6.925,6.925,0,0,0-.363.876l.042-.512v-.062l.062-.535v-.062a4.364,4.364,0,0,1,.109-.6.157.157,0,0,1,.022-.085V26.92a.071.071,0,0,1,.022-.062c0-.043.022-.062.022-.109l.085-.465.062-.363v-.043c0-.022,0-.043.022-.043v-.042c0-.022.022-.062.022-.085a.069.069,0,0,1,.022-.062,1.015,1.015,0,0,1,.022-.109c0-.023.022-.062.022-.085a.864.864,0,0,1,.022-.105.072.072,0,0,1,.022-.062c0-.022,0-.042.022-.042,0-.043.022-.062.022-.085V25.1l-.042.043c-.043.022-.062.062-.109.085l-.043.042a.665.665,0,0,0-.109.129l-.022.022-.129.192-.022.022c0,.022-.022.022-.022.043l-.062.129v.042c-.022.062-.062.129-.085.192l-.155.492c-.022.043-.022.109-.043.129l-.042.192v0a.349.349,0,0,1,.022-.155c0-.109.022-.236.022-.341a1.256,1.256,0,0,1,.043-.279.128.128,0,0,1,.022-.085c0-.042.022-.085.022-.129s.022-.085.022-.129v-.062c0-.043.022-.109.022-.149v-.149a.071.071,0,0,1,.022-.062.76.76,0,0,0,.043-.214v-.022c.022-.043.022-.109.043-.15v-.062c.022-.109.062-.214.085-.321V24.5a.071.071,0,0,1,.022-.062l.149-.492v-.022l.149-.406v-.022l.062-.155c.043-.085.062-.155.109-.256a.627.627,0,0,1,.062-.149c.022-.022.022-.062.042-.085a.769.769,0,0,0,.062-.149l.022-.042c-.022-.022-.062-.022-.085-.043H9.606l-.043-.022c-.2-.093-.408-.155-.62-.236H8.9a3.039,3.039,0,0,0-.428-.085c-.085,0-.155-.022-.256-.022H8.006c-.109,0-.214.022-.321.022a.2.2,0,0,0-.109.022c-.043,0-.109.022-.15.022a.071.071,0,0,0-.062.022c-.043,0-.062.022-.109.022l-.214.062c-.022,0-.062.022-.085.022-.085.042-.192.062-.279.109-.043.022-.062.043-.109.043l-.155.085a.475.475,0,0,0-.129.085.475.475,0,0,0-.129.085c-.043.022-.085.062-.129.085-.022.022-.062.042-.085.062l-.214.192L5.62,23.3a1.561,1.561,0,0,0-.155.192l-.022.022c-.022.043-.062.062-.085.109l-.062.062a3.644,3.644,0,0,0-.3.492c-.022.022-.022.042-.042.062-.042.085-.062.155-.109.256-.022.043-.022.062-.042.109a2.859,2.859,0,0,0-.085.279v.085c-.022.062-.022.129-.042.192a7278.144,7278.144,0,0,1-.043.217v.085a1.586,1.586,0,0,0,0,.321,1.1,1.1,0,0,0,.022.256v.043c0,.043.022.085.022.129a4.094,4.094,0,0,0,.109.492l.129.341a3.179,3.179,0,0,0,.321.6,3.371,3.371,0,0,0,1,.983,2.858,2.858,0,0,0,.726.341,2.406,2.406,0,0,0,.769.155c.062,0,.129.022.155.022h.279c.085,0,.155-.022.256-.022a.359.359,0,0,0,.15-.022l.363-.062h.022a1.07,1.07,0,0,1,.149-.042c.149-.042.3-.109.428-.155l.022-.022a.352.352,0,0,1,.109-.043l-.149-1.132c.109-.047.109-.068.109-.09" transform="translate(2.562 6.332)" fill="#fce9cd"/>
        <path id="Path_1223" data-name="Path 1223" d="M17.088,2.432l.062.042Z" transform="translate(9.423 1.338)" fill="#4d9ed7"/>
        <path id="Path_1224" data-name="Path 1224" d="M35.157,26.166c0-.022,0-.043-.022-.043a.154.154,0,0,1-.022-.085,3.07,3.07,0,0,0-.363-.791,2.465,2.465,0,0,0-.279-.363l.062-.256a1.613,1.613,0,0,0,.042-.321A3.086,3.086,0,0,0,34.3,22.6a1.57,1.57,0,0,0-.062-.149l-.363.256A18.662,18.662,0,0,1,26.181,25.7a21.991,21.991,0,0,1-6.066.062l.042.022a2,2,0,0,0-1.623,1.388l.022.022L18.447,28a2.563,2.563,0,0,0,1.11,2.171,9.116,9.116,0,0,0,2.137.512,17.852,17.852,0,0,0,4.652-.129A19.5,19.5,0,0,0,33.8,27.611a11.63,11.63,0,0,0,1.346-1.07l.042-.042c0-.149-.022-.233-.022-.321" transform="translate(10.172 12.358)" fill="#fff"/>
        <path id="Path_1225" data-name="Path 1225" d="M38.56,21.365c-1.175-.729-1.346-.961-1.24-2.906l.192-2.884.022-.47v-.62c0-.109-.022-.214-.022-.3a.269.269,0,0,0-.022-.129c-.022-.109-.022-.214-.042-.321,0-.042-.022-.109-.022-.149a.349.349,0,0,0-.043-.155c-.022-.047-.022-.109-.042-.15a2.611,2.611,0,0,0-.6-.662l-.043-.042-.042-.02h-.022a1.23,1.23,0,0,0-.109-.062.4.4,0,0,1-.109-.062,3.107,3.107,0,0,0-1.154-.406A6.069,6.069,0,0,0,34.56,12c-.109,0-.236.022-.341.022a7.356,7.356,0,0,0-.918.192l-.321.214-.279.192-.043.022a1.906,1.906,0,0,1-.278.171l-.042.022a2.377,2.377,0,0,1-.279.155l-.043.022a1.354,1.354,0,0,1-.3.15l-.043.022-.3.129-.043.022-.321.109h-.022l-.341.062-.6.043a8.325,8.325,0,0,1-.983-.062l-.321-.062a1.015,1.015,0,0,1-.109-.022l-.853-.192c-.129-.022-.236-.062-.363-.085l-.6-.129a1.1,1.1,0,0,1-.109-.022,3.915,3.915,0,0,0-.49.042h-.043a7.172,7.172,0,0,0-1.453.341c-.022,0-.042.022-.085.022-.085.022-.15.062-.233.085l-.3.129A8.129,8.129,0,0,0,22.1,14.853c-.256.214-.492.465-.726.682a9.289,9.289,0,0,0-.919,1.154c-.022.022-.022.043-.042.062a5.489,5.489,0,0,0-.385.662l-.129.236v.022a6.341,6.341,0,0,0-.321.812c0,.022,0,.043-.022.043-.022.043-.022.085-.043.129a2.527,2.527,0,0,0-.109.385,2.378,2.378,0,0,0-.085.406c0,.022-.022.062-.022.085-.022.085-.022.155-.043.233l-.085.9v.214a4.977,4.977,0,0,0,.555,1.324,7.5,7.5,0,0,0,3.411,2.926l1.282.492.022.022.022-.022a1.381,1.381,0,0,0,.155-.129c.022-.022.043-.022.062-.043l.192-.129c.022-.022.043-.022.062-.043l.192-.129c.022-.022.042-.022.062-.043l.214-.129c.022-.022.043-.022.062-.043l.214-.129c.022-.022.043-.022.062-.042l.214-.129c.022-.022.062-.022.085-.043.062-.043.15-.085.214-.129a.155.155,0,0,1,.085-.043c.062-.042.15-.085.233-.129.042-.022.062-.043.109-.043a1.357,1.357,0,0,1,.233-.109c.043-.022.062-.042.109-.042l.233-.109.129-.062.236-.109a.788.788,0,0,1,.15-.062c.085-.022.149-.062.233-.085.043-.022.109-.043.149-.062.085-.022.15-.062.233-.085l.155-.062c.085-.022.15-.062.233-.085l.192-.062a1.008,1.008,0,0,0,.214-.085L29.6,23.1l.233-.062.214-.062a2.13,2.13,0,0,0,.279-.085c.043-.022.085-.022.129-.042.341-.876,1.388-3.055,3.163-3.29l.535-.043h.129a2.335,2.335,0,0,1-.042-.406c-.062-.94.233-1.73.64-1.752.321-.022.577.465.62.6A2.915,2.915,0,0,1,35.739,19a3.744,3.744,0,0,1-.085,1c.042.042.062.085.109.109a2.706,2.706,0,0,1,.465,1.709c.15-.022.321-.022.492-.042a.269.269,0,0,0,.129-.022h.085l.62-.042,1.431-.085-.447-.233M43,34.557a13.672,13.672,0,0,1-2.392,1.687l-1.2.577a16.067,16.067,0,0,1-2.456.833,12.869,12.869,0,0,1-2.791.406,5.142,5.142,0,0,0,2.8.426,4.934,4.934,0,0,0,.9-.15c-.022.321-.062.62-.109.918a4.249,4.249,0,0,1-.256.853v.022a4.6,4.6,0,0,1-.47.853c-.022.022-.043.062-.062.085l.062-.042.833-.492.62-.406,1.023-.769c.022-.022.043-.043.062-.043l.919-.876a11.092,11.092,0,0,0,1.023-1.217l.022-.022.214-.3.022-.022c.022-.043.042-.062.062-.109l.3-.428a1.043,1.043,0,0,0,.062-.109,1.343,1.343,0,0,1,.15-.233l.109-.155a.961.961,0,0,0,.109-.192l.192-.341.279-.558c.042-.109.109-.214.149-.321a.392.392,0,0,0-.192.13M23.5,25.939a4.693,4.693,0,0,0-.726.279,8.486,8.486,0,0,0-2.137,1.24c-.085.062-.155.149-.256.214a3.589,3.589,0,0,0-.406.406l-.109.109a1.441,1.441,0,0,1-.15.155l-.062.062a.781.781,0,0,0-.155.256,1.4,1.4,0,0,0-.155.256,4.511,4.511,0,0,0-.577,2.585v-.042a.071.071,0,0,1,.022-.062v-.022c0-.022.022-.042.022-.085v-.023a.817.817,0,0,0,.022-.109c0-.047.022-.062.043-.109v-.031c.022-.043.022-.085.043-.129v-.022c.022-.042.022-.085.043-.129v-.022a.938.938,0,0,0,.062-.149l.022-.022a.547.547,0,0,1,.085-.15l.129-.233c.022-.022.043-.062.062-.085l.022-.022.129-.192c.043-.043.085-.109.129-.15l.042-.042c.043-.042.062-.085.109-.109l.043-.043a.9.9,0,0,0,.15-.149,6.947,6.947,0,0,0-.512,3.721v-.321a3894.971,3894.971,0,0,1,.043-.257v-.022c0-.043.022-.109.022-.149V32.3c.022-.062.022-.109.043-.155v-.02a.636.636,0,0,0,.043-.171c0-.022.022-.043.022-.062l.022-.043c.022-.043.043-.109.062-.15a.782.782,0,0,1,.109-.192.076.076,0,0,1,.022-.043l.129-.192L19.912,32.4a1.376,1.376,0,0,0,.022.3.587.587,0,0,0,.022.192,8.45,8.45,0,0,1,.343-1.859l.15-.47c0-.022.022-.043.022-.062l.155-.426c.022-.022.022-.043.043-.085l.192-.406a.077.077,0,0,0,.022-.062l.465-.769c.022-.022.022-.043.043-.062l.192-.279c.022-.022.022-.043.042-.062s.022-.043.043-.062l.233-.321c.022-.022.022-.042.043-.042l.256-.3.321-.363.321-.321.512-.492a6.747,6.747,0,0,1,.983-.775l-.279.062a3.374,3.374,0,0,1-.515.194m12.338-4.667a.589.589,0,0,0-.022-.129,1.3,1.3,0,0,0-1.56-.919,2.062,2.062,0,0,0-1.772,1.473.363.363,0,0,0-.022.109l.043.022a.621.621,0,0,1,.726.062.974.974,0,0,1,.3.279.469.469,0,0,1,.062.47l-.062.062a.651.651,0,0,0,.129.042,1.693,1.693,0,0,0,1.814-.363,1.231,1.231,0,0,0,.062-.109c-.109-.042-.15-.192-.15-.385a1.7,1.7,0,0,1,.043-.279c.062-.256.256-.4.4-.341M29.7,30.4l-2.051.385a.128.128,0,0,1,.085.022,22.917,22.917,0,0,0,4.124.149A18.02,18.02,0,0,0,43.1,26.3v-.022a1.66,1.66,0,0,0-.385-1.217,1.915,1.915,0,0,0-.214-.192c-.022,0-.022-.022-.043-.022l-.279-.155-.192-.129v-.022a6.687,6.687,0,0,1-.812.961l-.341.321a14.591,14.591,0,0,1-3.887,2.392,37.829,37.829,0,0,1-7.241,2.2M9.452,24.843c-.043.022-.062.062-.109.085l-.037.031a.614.614,0,0,0-.109.129l-.022.022-.129.192-.022.022c0,.022-.022.022-.022.042l-.062.129v.043c-.022.062-.062.129-.085.192l-.155.492c-.022.043-.022.109-.042.129l-.043.192v0a.349.349,0,0,1,.022-.155c0-.109.022-.236.022-.341a1.349,1.349,0,0,1,.042-.279.128.128,0,0,1,.022-.085c0-.043.022-.085.022-.129s.022-.085.022-.129v-.062c0-.042.022-.109.022-.149v-.15A.072.072,0,0,1,8.81,25a.744.744,0,0,0,.043-.214v-.022c.022-.043.022-.109.042-.15v-.022c.022-.105.062-.214.085-.321v-.042A.072.072,0,0,1,9,24.169l.15-.492v-.022l.149-.406v-.022l.062-.155c.042-.085.062-.155.109-.256a.653.653,0,0,1,.062-.15c.022-.022.022-.062.042-.085a.77.77,0,0,0,.062-.149l.022-.043c-.022-.022-.062-.022-.085-.043H9.507l-.043-.022a5.21,5.21,0,0,0-.62-.234H8.8A3.263,3.263,0,0,0,8.373,22c-.085,0-.155-.022-.256-.022H7.9c-.109,0-.214.022-.321.022a.2.2,0,0,0-.109.022c-.042,0-.109.022-.149.022a.072.072,0,0,0-.062.022c-.043,0-.062.022-.109.022l-.214.062c-.022,0-.062.022-.085.022-.085.043-.192.062-.279.109-.043.022-.062.043-.109.043l-.155.085a.475.475,0,0,0-.129.085.475.475,0,0,0-.129.085c-.042.022-.085.062-.129.085-.022.022-.062.043-.085.062-.062.062-.149.129-.214.192l-.109.109a1.561,1.561,0,0,0-.155.192l-.022.022c-.022.042-.062.062-.085.105l-.062.062a3.566,3.566,0,0,0-.3.492c-.022.022-.022.042-.043.062-.043.085-.062.155-.109.256-.022.043-.022.062-.043.109,0,.022.022.043.022.062l.062.233v.043l.085.214a3.806,3.806,0,0,0,.279.577c.022.022.022.043.043.062v.022l.022.022a2.109,2.109,0,0,0,.192.321l.256.341.042.043.062.062a1.1,1.1,0,0,0-.022-.109,3.613,3.613,0,0,1-.085-.811v-.043l.022-.492.062.192c.022.085.062.155.085.256v.042a4.66,4.66,0,0,0,.426.9,4.326,4.326,0,0,0,.428.62c.022.022.043.042.043.062l.043.042a4.156,4.156,0,0,1-.109-.853v-.279a1.7,1.7,0,0,1,.022-.341c.043.192.109.385.155.555v.022a6.233,6.233,0,0,0,.705,1.346l.022.022a.514.514,0,0,1,.085.129c.022.022.043.043.043.062l.043.042.022.022v-.042c0-.043-.022-.085-.022-.129l-.062-.428c0-.085-.022-.192-.022-.279v-.471c0-.109.022-.233.022-.341l.062.214c.022.043.043.109.062.15v.022l.022.022.062.155a1.258,1.258,0,0,0,.15.3l.155.321a1.018,1.018,0,0,1,.085.15l.109.155a.452.452,0,0,1,.085.129l.022.022c.022.043.062.062.085.109.022.022.043.043.043.062.042.043.062.085.085.085l.022.022v-.062l.062-.533v-.062a4.364,4.364,0,0,1,.109-.6.157.157,0,0,1,.022-.085v-.026a.072.072,0,0,1,.022-.062c0-.042.022-.062.022-.109l.085-.465.062-.363v-.043c0-.022,0-.043.022-.043v-.043c0-.022.022-.062.022-.085a.069.069,0,0,1,.022-.062,1.016,1.016,0,0,1,.022-.109c0-.023.022-.062.022-.085A1.015,1.015,0,0,1,9.237,25a.069.069,0,0,1,.022-.062c0-.022,0-.042.022-.042,0-.043.022-.062.022-.085v-.062l.109.068M35.3,33.742l.769-.279c.406-.155.62-.3.62-.341-.022-.043-.256-.022-.682.085l-.775.155a3.561,3.561,0,0,1-.492.085l-.555.085-1.282.149-.705.062-.747.043a16.425,16.425,0,0,1-3.31-.233,7.256,7.256,0,0,1-2.008-.705l-.022-.022a2.037,2.037,0,0,1,1.623-1.388l-.042-.022h-.062l-.492-.062c-.109-.022-.192-.022-.256-.043a1.286,1.286,0,0,1-.15-.022,1.439,1.439,0,0,0-1.324.876l-.062.129a2.61,2.61,0,0,0-.214.853,2.372,2.372,0,0,0,.555,1.73,3.607,3.607,0,0,0,1.473.94,2.527,2.527,0,0,1-1.11-2.171,8.724,8.724,0,0,0,1.985.555,13.846,13.846,0,0,0,3.461.192l.769-.062.729-.085,1.282-.233.555-.15a2.734,2.734,0,0,0,.49-.15" transform="translate(2.604 6.606)" fill="#f2d2ac"/>
        <path id="Path_1226" data-name="Path 1226" d="M27.3,17.6a1.9,1.9,0,0,1,1.368.512,3.637,3.637,0,0,0,.085-1,3.008,3.008,0,0,0-.233-1.047c-.043-.155-.3-.62-.62-.6-.406.022-.705.812-.64,1.752a2.372,2.372,0,0,0,.042.385m1.085,2.413a.509.509,0,0,0,.15.385c.149.085.341-.085.426-.363,0-.022.022-.043.022-.062.062-.256,0-.512-.149-.577-.15-.085-.341.085-.428.363,0,.087-.022.155-.022.256m-2.9.47a.811.811,0,0,0,.3.3.676.676,0,0,0,.747.043l.062-.062a.5.5,0,0,0-.062-.47.651.651,0,0,0-.3-.279.69.69,0,0,0-.729-.062.263.263,0,0,0-.062.085.538.538,0,0,0,.043.465m10.274,9.826a10.171,10.171,0,0,1-1.368,1.088,19.182,19.182,0,0,1-7.455,2.946,17.252,17.252,0,0,1-4.652.129,9.73,9.73,0,0,1-2.137-.512,3.57,3.57,0,0,1-1.473-.94,2.425,2.425,0,0,1-.555-1.73,2.3,2.3,0,0,1,.214-.856l.062-.129a1.431,1.431,0,0,1,1.324-.876.481.481,0,0,1,.15.022,1.485,1.485,0,0,1,.256.043l.492.062h.062a22.173,22.173,0,0,0,6.066-.062,18.627,18.627,0,0,0,7.691-2.993l.363-.256,1.261-1.879a17.959,17.959,0,0,1-11.235,4.678,21.087,21.087,0,0,1-4.124-.15c-.042,0-.062,0-.085-.022l-.662-.085c-.085,0-.149-.022-.192-.022a1.825,1.825,0,0,0-.682.085,2.14,2.14,0,0,0-1.09.811,3.055,3.055,0,0,0-.555,1.752,3.365,3.365,0,0,0,.406,1.6c.022.022.022.042.042.062l.109.155c.05.078.109.149.155.214.662.833,2.115,1.431,4.038,1.687a17.322,17.322,0,0,0,4.466-.085c4.869-.876,7.179-2.456,8.244-3.546l.214-.233a4.391,4.391,0,0,0,.62-.919v-.019a.157.157,0,0,0,.022-.062l-.022.023" transform="translate(9.613 8.512)" fill="#664f44"/>
        <path id="Path_1227" data-name="Path 1227" d="M20.979,14.756a2,2,0,0,0-.492-.192l-.341-.062a.272.272,0,0,1-.129-.022,5.067,5.067,0,0,0-1.085.042,1.369,1.369,0,0,0-.3.085,3.4,3.4,0,0,0-1.687,1.112,3.293,3.293,0,0,0-.62,1.194.191.191,0,0,0-.022.109c-.022.109-.062.214-.085.3a5.268,5.268,0,0,0-.109.9l.022.555a7.361,7.361,0,0,1,.428-.811,7.561,7.561,0,0,1,1.154-1.538,5.872,5.872,0,0,1,2.171-1.431,4.329,4.329,0,0,1,1.09-.236m9.249-1.09-.022-.043a1.385,1.385,0,0,0-.321-.3,1.661,1.661,0,0,0-1.261-.192,2.185,2.185,0,0,0-1.047.6,2.584,2.584,0,0,1,2.392.385,2.029,2.029,0,0,1,.341.279c.105.124.233.214.341.363a2.333,2.333,0,0,0-.363-1,.38.38,0,0,0-.062-.085" transform="translate(8.885 7.207)" fill="#e9b784"/>
        <path id="Path_1228" data-name="Path 1228" d="M19.534,20.34l1.453-.385a4.445,4.445,0,0,0,.043-1.431c-.15-1.24-.705-2.2-1.261-2.137s-.876,1.132-.726,2.372a4.192,4.192,0,0,0,.49,1.582" transform="translate(10.48 9.02)" fill="#664f44"/>
        <path id="Path_1229" data-name="Path 1229" d="M19.567.93l-1.154.256.233,2.093-3.055-1.56L14.331,2.1l.022.022,3.717,4.23.087-.042L18.5,6.1a.462.462,0,0,0,.129-.085l.512-.3L17.556,3.9,20.1,5.141l.233-.129L20.1,3.2l1.154,1.346h.022c.109-.043.192-.109.3-.15l.043-.022.042-.022a.076.076,0,0,0,.043-.022l.129-.062c.15-.085.3-.15.426-.214L19.566.952" transform="translate(7.906 0.511)" fill="#ffd250"/>
        <path id="Path_1230" data-name="Path 1230" d="M23.61,1.287v0m0-.062.155-.043a4.059,4.059,0,0,0-1-.279,7.808,7.808,0,0,0-2.862.279A18.642,18.642,0,0,0,16.2,2.613,38.257,38.257,0,0,0,7.723,8.572L4.932,11.327,8.424,15.6l3.055-3.055a42.877,42.877,0,0,1,4.442-3.566,34.9,34.9,0,0,1,4.207-2.543l-.6-2.734.022-1.538-.022-.022,1.261-.385,2.456,1.261-.062-.853.426-.938" transform="translate(2.731 0.474)" fill="#4d9ed7"/>
        <path id="Path_1231" data-name="Path 1231" d="M17.289,1.1l-.428.94.062.876.6.3Zm-.876,2.713L18.976,5.07l-.983.555ZM18.976,3.1l.233,1.814.918-.47Z" transform="translate(9.052 0.603)" fill="#132134"/>
        <path id="Path_1232" data-name="Path 1232" d="M33.214,2.067h.471a5.552,5.552,0,0,1,1.217.15.072.072,0,0,1,.062.022h.022l.042.022h.043c-.043-.022-.085-.062-.129-.085A5.613,5.613,0,0,0,33.6,1.835a14.058,14.058,0,0,0-6.45,1.154c-.085.042-.155.062-.256.109l-.385.155-.662.3c-.042.022-.062.022-.109.042l-.406.192-.15.085a.076.076,0,0,0-.043.022h-.085l-.022.022a1.969,1.969,0,0,0-.3.15h-.015c-.022.022-.043.022-.062.042h-.022a.076.076,0,0,0-.043.022l-.465.233a3.189,3.189,0,0,1-.321.155h-.022l-.233.129c-.256.129-.492.279-.747.428-.022.022-.043.022-.085.043-.022.022-.043.022-.062.042s-.042.022-.062.043l-.022.022-.512.3a.475.475,0,0,0-.129.085l-.341.214-.087.042-.961.64-1.56,1.112c-.062.042-.129.105-.192.149-1.346,1-2.628,2.093-3.865,3.2L11.2,14.622,9.564,16.337,8.2,17.919a2.065,2.065,0,0,0,.233-.214l-.341.406,6.45-6.236,4.4-3.481,2.028-1.388.662-.426.341-.192a.89.89,0,0,1,.192-.109c.129-.062.233-.15.363-.214a2.745,2.745,0,0,0,.341-.214c.062-.043.129-.062.192-.109l.465-.256c.085-.043.155-.109.256-.15l.853-.465c.022-.022.042-.022.062-.043l.129-.062a1.179,1.179,0,0,0,.155-.085c.022-.022.043-.022.062-.042l.129-.062.042-.022.363-.155c.022,0,.043-.022.062-.042l.129-.062.428-.192a.655.655,0,0,0,.109-.062c.022,0,.043-.022.062-.022a.293.293,0,0,1,.129-.042l.492-.214.428-.192,2.264-.853A16.226,16.226,0,0,1,33.2,2.075" transform="translate(4.469 0.975)" fill="#fff"/>
      </g>
    </g>
  </g>
</svg>
