<svg xmlns="http://www.w3.org/2000/svg" width="121.335" height="73.2" viewBox="0 0 121.335 73.2">
  <g id="next-js-seeklogo.com" transform="translate(0 0)">
    <path id="Path_1185" data-name="Path 1185" d="M28.63,19.092H51.515v1.819H30.728V34.6H50.275v1.819H30.728v15.03H51.753v1.819H28.63Zm24.935,0H56l10.775,15.03,11.013-15.03L92.764,0,68.154,35.7,80.836,53.268H78.309L66.771,37.281,55.186,53.268H52.707L65.484,35.7Zm28.177,1.819V19.092h26.079v1.819H95.806V53.268h-2.1V20.911ZM0,19.092H2.622L38.781,73.2,23.838,53.268,2.193,21.676,2.1,53.268H0ZM107.61,50.9a.761.761,0,1,1,.75-.761A.741.741,0,0,1,107.61,50.9Zm2.061-2h1.123a1.025,1.025,0,0,0,1.112,1.017c.73,0,1.143-.439,1.143-1.262V43.441h1.143v5.216a2.113,2.113,0,0,1-2.276,2.335A2.056,2.056,0,0,1,109.671,48.9Zm6.016-.067h1.133c.1.7.781,1.144,1.765,1.144.919,0,1.592-.475,1.592-1.129,0-.562-.429-.9-1.4-1.129l-.949-.23c-1.332-.312-1.939-.956-1.939-2.039,0-1.313,1.071-2.187,2.679-2.187a2.4,2.4,0,0,1,2.653,2.115h-1.112a1.406,1.406,0,0,0-1.556-1.1c-.9,0-1.505.434-1.505,1.1,0,.526.388.828,1.347,1.052l.811.2c1.51.353,2.133.966,2.133,2.074,0,1.41-1.092,2.294-2.837,2.294C116.865,50.992,115.768,50.149,115.687,48.831Z" transform="translate(0 0)"/>
  </g>
</svg>
