<svg xmlns="http://www.w3.org/2000/svg" width="171.537" height="57.133" viewBox="0 0 171.537 57.133">
  <g id="react" transform="translate(0.831 0.946)">
    <path id="Path_1278" data-name="Path 1278" d="M15.154,18.8a5.824,5.824,0,1,1,5.824,5.824A5.824,5.824,0,0,1,15.154,18.8Z" transform="translate(10.239 8.766)" fill="#00d8ff" fill-rule="evenodd"/>
    <g id="Group_1096" data-name="Group 1096" transform="translate(0 0)">
      <path id="Path_1279" data-name="Path 1279" d="M31.217,9.384a65.368,65.368,0,0,1,20.56,3.008c6.6,2.272,10.657,5.714,10.657,8.834,0,3.251-4.3,6.907-11.386,9.255a65.574,65.574,0,0,1-19.829,2.7c-7.611,0-14.816-.871-20.235-2.721C4.127,28.117,0,24.412,0,21.225c0-3.093,3.874-6.51,10.381-8.78A65.948,65.948,0,0,1,31.217,9.382Z" transform="translate(0 6.338)" fill="none" stroke="#00d8ff" stroke-linecap="round" stroke-linejoin="round" stroke-width="1.663" fill-rule="evenodd"/>
      <path id="Path_1280" data-name="Path 1280" d="M15.819,21.676A65.28,65.28,0,0,1,28.7,5.368C33.959.787,38.97-1.006,41.671.549c2.815,1.625,3.837,7.177,2.346,14.488a65.594,65.594,0,0,1-7.565,18.528c-3.8,6.592-8.155,12.4-12.467,16.17C18.53,54.5,13.26,56.227,10.5,54.636c-2.681-1.542-3.686-6.607-2.418-13.377a65.956,65.956,0,0,1,7.755-19.58Z" transform="translate(5.09 0)" fill="none" stroke="#00d8ff" stroke-linecap="round" stroke-linejoin="round" stroke-width="1.663" fill-rule="evenodd"/>
      <path id="Path_1281" data-name="Path 1281" d="M15.826,33.556a65.294,65.294,0,0,1-7.7-19.3C6.806,7.406,7.738,2.171,10.436.61c2.812-1.625,8.134.261,13.715,5.218A65.559,65.559,0,0,1,36.425,21.636c3.812,6.585,6.669,13.258,7.782,18.874,1.408,7.1.268,12.534-2.49,14.132-2.676,1.55-7.574-.09-12.8-4.586a65.908,65.908,0,0,1-13.09-16.5Z" transform="translate(5.091 0.026)" fill="none" stroke="#00d8ff" stroke-linecap="round" stroke-linejoin="round" stroke-width="1.663" fill-rule="evenodd"/>
    </g>
    <path id="Path_1282" data-name="Path 1282" d="M64.947,36,57.809,25.215a7.323,7.323,0,0,0,6.858-7.708c0-4.859-3.448-7.969-8.286-7.969H45.758V35.98h3.291V25.473h5.273L61.062,35.98Zm-8.96-13.4H49.051V12.49h6.937a4.914,4.914,0,0,1,5.273,5.035A4.948,4.948,0,0,1,55.988,22.6ZM77.2,36.474a10.405,10.405,0,0,0,7.612-2.932L83.383,31.6a8.37,8.37,0,0,1-5.907,2.418,6.748,6.748,0,0,1-6.9-6.619h15.5v-.754c0-5.747-3.41-10.268-9.216-10.268-5.471,0-9.434,4.481-9.434,10.03,0,5.987,4.084,10.054,9.752,10.054Zm5.949-11.26H70.579c.159-2.932,2.178-6.367,6.264-6.367A6.2,6.2,0,0,1,83.146,25.214ZM105.825,36V22.836c0-4.638-3.351-6.463-7.413-6.463a10.018,10.018,0,0,0-7.651,3.172l1.387,2.061a7.609,7.609,0,0,1,5.868-2.656c2.775,0,4.838,1.466,4.838,4.043v3.448a8.006,8.006,0,0,0-6.344-2.617c-3.251,0-6.7,2.022-6.7,6.3,0,4.162,3.448,6.344,6.7,6.344a8.283,8.283,0,0,0,6.344-2.656v2.178ZM97.58,34.332c-2.775,0-4.719-1.743-4.719-4.162,0-2.458,1.944-4.2,4.719-4.2a6.413,6.413,0,0,1,5.273,2.379v3.608a6.415,6.415,0,0,1-5.273,2.379ZM120.2,36.474a8.2,8.2,0,0,0,7.018-3.329l-1.982-1.823a5.782,5.782,0,0,1-4.859,2.513c-4.084,0-6.619-3.172-6.619-7.413s2.537-7.373,6.619-7.373a5.609,5.609,0,0,1,4.859,2.513l1.982-1.823A8.194,8.194,0,0,0,120.2,16.41c-5.709,0-9.554,4.362-9.554,10.03,0,5.709,3.846,10.054,9.554,10.054Zm16.019,0a4.873,4.873,0,0,0,3.569-1.228l-.871-2.22a2.842,2.842,0,0,1-2.022.793c-1.307,0-1.944-1.031-1.944-2.458v-11.9h3.887V16.847h-3.887V11.614h-2.974v5.233h-3.172v2.617h3.172V31.993C131.978,34.849,133.406,36.474,136.221,36.474Z" transform="translate(30.916 6.444)" fill="#00d8ff" fill-rule="evenodd"/>
  </g>
</svg>
