<svg id="sendgrid" xmlns="http://www.w3.org/2000/svg" width="162.905" height="45.249" viewBox="0 0 162.905 45.249">
  <g id="Group_1031" data-name="Group 1031">
    <path id="Path_1233" data-name="Path 1233" d="M34.977,25.164l3.469-2.715a4.945,4.945,0,0,0,4.346,2.681A2.712,2.712,0,0,0,45.8,22.495c0-1.665-1.988-2.172-4.162-2.82-2.681-.832-5.685-1.849-5.685-5.734,0-3.236,2.82-5.779,6.658-5.779a8.585,8.585,0,0,1,6.75,2.914l-3.144,2.4a4.011,4.011,0,0,0-3.559-1.9c-1.8,0-2.715.971-2.715,2.22,0,1.526,1.942,2.081,4.069,2.775,2.715.879,5.779,2.081,5.779,5.918,0,3.191-2.543,6.243-6.937,6.243a9.7,9.7,0,0,1-7.86-3.559Zm30.765-10.4h3.745v1.526a4.762,4.762,0,0,1,3.791-1.8c3.236,0,5.179,2.081,5.179,5.64v8.37H74.605v-7.86c0-1.849-.832-2.914-2.543-2.914-1.433,0-2.589.971-2.589,3.283v7.491H65.722ZM79.336,21.65c0-4.856,3.559-7.166,6.658-7.166A5.531,5.531,0,0,1,90.111,16.1V8.411h3.745V28.479H90.093V26.953a5.406,5.406,0,0,1-4.162,1.8,6.777,6.777,0,0,1-6.611-7.121ZM90.2,21.605a3.554,3.554,0,0,0-3.514-3.7,3.7,3.7,0,1,0,0,7.4A3.555,3.555,0,0,0,90.2,21.605Zm4.532-3.144A10.079,10.079,0,0,1,105,8.15a10.369,10.369,0,0,1,7.26,2.775,9.361,9.361,0,0,1,1.849,2.359l-3.328,2.036a6.181,6.181,0,0,0-5.734-3.469,6.522,6.522,0,0,0-6.473,6.611,6.468,6.468,0,0,0,6.611,6.611,5.593,5.593,0,0,0,5.685-4.223H104.58V17.2h10.4v1.526c0,5.363-3.838,10.033-9.8,10.033A10.151,10.151,0,0,1,94.729,18.447Zm21.177-3.7h3.725v2.265a3.9,3.9,0,0,1,3.791-2.265h1.526l-1.387,3.653h-1.018c-1.988,0-2.865,1.063-2.865,3.619v6.473H115.89Zm10.033,0h3.745V28.494h-3.745V18.414h-1.387Zm1.9-2.081a2.265,2.265,0,1,0-2.265-2.265,2.269,2.269,0,0,0,2.265,2.265Zm2.775,8.97c0-4.856,3.559-7.166,6.658-7.166a5.533,5.533,0,0,1,4.117,1.618V8.411h3.745V28.479h-3.745V26.953a5.406,5.406,0,0,1-4.162,1.8,6.777,6.777,0,0,1-6.611-7.121Zm10.866-.045a3.554,3.554,0,0,0-3.514-3.7,3.7,3.7,0,1,0,0,7.4,3.555,3.555,0,0,0,3.514-3.7Zm-76.615,0a6.89,6.89,0,0,0-7.088-7.121A7.143,7.143,0,0,0,50.61,21.65a7.323,7.323,0,0,0,13.549,3.7l-3.006-1.8a3.69,3.69,0,0,1-3.283,1.988,3.43,3.43,0,0,1-3.653-2.5H64.8V21.6ZM54.413,19.94a3.582,3.582,0,0,1,3.375-2.172,3.251,3.251,0,0,1,3.283,2.172Z" transform="translate(17.771 4.141)" fill="#263746"/>
    <path id="Path_1234" data-name="Path 1234" d="M0,9.962H15.111V25.073H0Z" transform="translate(0 5.062)" fill="#fff"/>
    <path id="Path_1235" data-name="Path 1235" d="M0,9.962H15.111V25.073H0Z" transform="translate(0 5.062)" fill="#99e1f4"/>
    <path id="Path_1236" data-name="Path 1236" d="M10.02,19.982H25.045V35.007H10.02Z" transform="translate(5.091 10.153)" fill="#fff"/>
    <path id="Path_1237" data-name="Path 1237" d="M10.02,19.982H25.045V35.007H10.02Z" transform="translate(5.091 10.153)" fill="#99e1f4"/>
    <path id="Path_1238" data-name="Path 1238" d="M0,35.009H15.111V35.1H0ZM0,19.982H15.111V35.007H0Z" transform="translate(0 10.153)" fill="#1a82e2"/>
    <path id="Path_1239" data-name="Path 1239" d="M10.02,0H25.045V15.025H10.02ZM25.047,15.114H40.158V30.139H25.047Z" transform="translate(5.091)" fill="#00b3e3"/>
    <path id="Path_1240" data-name="Path 1240" d="M25.047,25.073V9.962H10.02V25.073Z" transform="translate(5.091 5.062)" fill="#009dd9"/>
    <g id="Group_1030" data-name="Group 1030" transform="translate(30.138)">
      <path id="Path_1241" data-name="Path 1241" d="M19.984,0H35.1V15.025H19.984Z" transform="translate(-19.984)" fill="#1a82e2"/>
      <path id="Path_1242" data-name="Path 1242" d="M19.984,9.962H35.1v.087H19.984Z" transform="translate(-19.984 5.062)" fill="#1a82e2"/>
    </g>
  </g>
</svg>
